<?xml version="1.0" encoding="UTF-8" standalone="no"?>
<svg xmlns:dc="http://purl.org/dc/elements/1.1/" xmlns:cc="http://creativecommons.org/ns#" xmlns:rdf="http://www.w3.org/1999/02/22-rdf-syntax-ns#" xmlns:svg="http://www.w3.org/2000/svg" xmlns="http://www.w3.org/2000/svg" xmlns:sodipodi="http://sodipodi.sourceforge.net/DTD/sodipodi-0.dtd" xmlns:inkscape="http://www.inkscape.org/namespaces/inkscape" color-rendering="auto" color-interpolation="auto" text-rendering="auto" stroke-miterlimit="10" shape-rendering="auto" font-weight="normal" font-style="normal" font-size="12" image-rendering="auto" id="svg3022" version="1.1" inkscape:version="0.48.4 r9939" width="150.98441" height="235.92191" sodipodi:docname="shower.svg" style="font-size:12px;font-style:normal;font-weight:normal;fill:#000000;fill-opacity:1;stroke:#000000;stroke-width:1;stroke-linecap:square;stroke-linejoin:miter;stroke-miterlimit:10;stroke-opacity:1;stroke-dasharray:none;stroke-dashoffset:0;font-family:Dialog">
  <metadata id="metadata3033">
    <rdf:RDF>
      <cc:Work rdf:about="">
        <dc:format>image/svg+xml</dc:format>
        <dc:type rdf:resource="http://purl.org/dc/dcmitype/StillImage"/>
        <dc:title/>
      </cc:Work>
    </rdf:RDF>
  </metadata>
  <sodipodi:namedview pagecolor="#ffffff" bordercolor="#666666" borderopacity="1" objecttolerance="10" gridtolerance="10" guidetolerance="10" inkscape:pageopacity="0" inkscape:pageshadow="2" inkscape:window-width="1280" inkscape:window-height="972" id="namedview3031" showgrid="false" fit-margin-top="3" fit-margin-left="3" fit-margin-right="3" fit-margin-bottom="3" inkscape:zoom="1.25" inkscape:cx="265.81559" inkscape:cy="59.77197" inkscape:window-x="-8" inkscape:window-y="-8" inkscape:window-maximized="1" inkscape:current-layer="svg3022"/>
  <!--Unicode Character 'SHOWER' (U+1F6BF)-->
  <defs id="genericDefs"/>
  <g id="g3025" transform="translate(-8.5312,-94.0312)">
    <g id="g3027">
      <path d="m 156.5156,170.1562 q 0,7.1719 -5.9062,7.1719 l -133.1719,0 q -2.1094,0 -4.0078,-2.4609 -1.8985,-2.461 -1.8985,-4.711 0,-5.0624 5.4844,-6.1874 1.2656,-0.2813 9.2813,-0.2813 1.5469,0 2.3906,-0.1406 5.0625,-13.3594 18.5625,-24.4688 14.0625,-11.3906 27.8438,-12.375 l 1.8281,-0.9843 0,-28.6876 13.5,0 0,28.6876 q 1.9687,0.7031 10.6875,2.8124 11.6718,2.6719 22.9218,13.3594 10.6876,9.9844 15.3282,21.6563 0.9844,0 2.8125,0 1.9687,-0.1407 2.6719,-0.1407 11.6718,0 11.6718,6.75 z m -27.2812,31.2188 q 0,7.1719 -7.0313,7.1719 -4.2187,0 -7.0312,-6.75 -2.25,-5.625 -2.25,-10.5469 0,-2.3906 2.4609,-4.4297 2.461,-2.0391 4.9922,-2.0391 3.9375,0 6.6094,6.6094 2.25,5.3438 2.25,9.9844 z m -25.875,1.125 q 0,9.4219 -6.75,9.4219 -7.4532,0 -7.4532,-14.4844 0,-9.2813 6.75,-9.2813 7.4532,0 7.4532,14.3438 z m 34.0312,36.7031 q 0,6.75 -7.0312,6.75 -4.0782,0 -6.8906,-6.3281 -2.3907,-5.3438 -2.3907,-9.9844 0,-7.4531 7.1719,-7.4531 4.5,0 7.1719,6.6094 1.9687,5.0625 1.9687,10.4062 z m -58.5,-44.2969 q 0,17.0157 -7.4531,17.0157 -2.6719,0 -5.0625,-1.9688 -2.3906,-1.9687 -2.3906,-4.5 0,-17.2969 8.1562,-17.2969 2.25,0 4.5,2.25 2.25,2.25 2.25,4.5 z m 66.0938,81.7032 q 0,6.8906 -6.8906,6.8906 -3.9376,0 -5.2032,-2.25 -3.6562,-6.1875 -3.6562,-14.4844 0,-6.4687 7.1718,-6.4687 4.2188,0 5.4844,2.9531 3.0938,7.4531 3.0938,13.3594 z m -38.8125,-36.4219 q 0,10.5469 -6.4688,10.5469 -7.1719,0 -7.1719,-12.5156 0,-6.0469 0.5626,-7.5938 1.125,-3.6562 5.9062,-3.6562 7.1719,0 7.1719,13.2187 z m -51.75,-48.2344 q 0,4.7813 -2.1094,10.125 -2.6719,6.4688 -6.75,6.4688 -6.75,0 -6.75,-7.1719 0,-5.2031 1.9687,-10.125 2.5313,-6.4688 6.8907,-6.4688 2.5312,0 4.6406,2.25 2.1094,2.25 2.1094,4.9219 z m 98.7187,122.4844 q 0,7.1719 -7.1718,7.1719 -3.9376,0 -6.4688,-6.75 -2.1094,-5.4844 -2.1094,-10.2656 0,-6.8907 6.4688,-6.8907 4.5,0 6.1875,2.9531 3.0937,5.3438 3.0937,13.7813 z M 76.2188,235.9688 q 0,14.7656 -7.4532,14.7656 -2.6718,0 -5.1328,-2.0391 -2.4609,-2.0391 -2.4609,-4.7109 0,-17.0156 7.875,-17.0156 7.1719,0 7.1719,9 z m 32.625,43.7343 q 0,9.1407 -7.1719,9.1407 -6.4688,0 -6.4688,-11.5313 0,-12.9375 5.7657,-12.9375 7.875,0 7.875,15.3281 z M 46.2656,229.6406 q 0,6.6094 -2.9531,13.3594 -1.2656,2.9531 -5.9063,2.9531 -6.75,0 -6.75,-6.75 0,-5.0625 1.9688,-9.9843 2.5312,-6.3282 6.75,-6.3282 6.8906,0 6.8906,6.75 z m 65.25,88.4532 q 0,8.8593 -6.3281,8.8593 -7.875,0 -7.875,-15.1875 0,-8.5781 7.1719,-8.5781 7.0312,0 7.0312,14.9063 z M 72.8438,273.5156 q 0,15.3282 -7.5938,15.3282 -6.75,0 -6.75,-9.2813 0,-14.4844 7.4531,-14.4844 6.8907,0 6.8907,8.4375 z m -34.0313,-6.3281 q 0,1.4063 -1.5469,7.1719 -1.5468,5.7656 -2.25,6.8906 -1.8281,2.9531 -5.4844,2.9531 -7.1718,0 -7.1718,-7.1719 0,-4.3593 2.3906,-9.9843 2.8125,-6.75 6.4688,-6.75 2.6718,0 5.1328,2.1093 2.4609,2.1094 2.4609,4.7813 z m 31.9219,42.75 q 0,17.0156 -7.875,17.0156 -6.6094,0 -6.6094,-10.2656 0,-13.5 7.3125,-13.5 2.6719,0 4.9219,2.1094 2.25,2.1093 2.25,4.6406 z m -40.0782,-5.3437 q 0,4.6406 -2.25,10.2656 -2.6718,6.75 -6.6093,6.75 -2.6719,0 -5.1328,-2.1094 -2.461,-2.1094 -2.461,-4.7812 0,-1.5469 1.4766,-7.1719 1.4765,-5.625 2.1797,-6.8907 1.8281,-2.9531 5.625,-2.9531 2.6718,0 4.9218,2.1094 2.25,2.1094 2.25,4.7813 z M 123.75,163.5469 q -14.3438,-23.7657 -40.0781,-23.7657 -26.0157,0 -39.375,23.7657 l 79.4531,0 z" id="path3029" inkscape:connector-curvature="0" style="stroke:none"/>
    </g>
  </g>
</svg>